<svg width="32" height="32" viewBox="0 0 32 32" fill="none" xmlns="http://www.w3.org/2000/svg">
<path d="M17 9.59995C17 9.04767 16.5522 8.59995 16 8.59995C15.4477 8.59995 15 9.04767 15 9.59995L17 9.59995ZM15 22.4C15 22.9522 15.4477 23.4 16 23.4C16.5522 23.4 17 22.9522 17 22.4H15ZM22.4 17C22.9522 17 23.4 16.5522 23.4 16C23.4 15.4477 22.9522 15 22.4 15V17ZM9.59995 15C9.04767 15 8.59995 15.4477 8.59995 16C8.59995 16.5522 9.04767 17 9.59995 17V15ZM27.7999 16C27.7999 22.5169 22.5169 27.7999 16 27.7999V29.7999C23.6215 29.7999 29.7999 23.6215 29.7999 16H27.7999ZM16 27.7999C9.48299 27.7999 4.19995 22.5169 4.19995 16H2.19995C2.19995 23.6215 8.37842 29.7999 16 29.7999V27.7999ZM4.19995 16C4.19995 9.48299 9.48299 4.19995 16 4.19995V2.19995C8.37842 2.19995 2.19995 8.37842 2.19995 16H4.19995ZM16 4.19995C22.5169 4.19995 27.7999 9.48299 27.7999 16H29.7999C29.7999 8.37842 23.6215 2.19995 16 2.19995V4.19995ZM15 9.59995L15 16L17 16L17 9.59995L15 9.59995ZM15 16V22.4H17V16H15ZM22.4 15H16V17H22.4V15ZM16 15H9.59995V17H16V15Z" fill="white"/>
</svg>
