<svg width="229" height="24" viewBox="0 0 229 24" fill="none" xmlns="http://www.w3.org/2000/svg">
<path d="M2.93002 3.42315C3.69822 3.73043 4.15915 3.57678 4.92735 3.2695C4.00551 3.11585 3.39094 2.96222 2.93002 3.42315ZM8.4611 8.64694C8.76839 8.4933 8.61475 8.33964 8.30746 8.33964C8.00018 8.49328 8.00018 8.64694 8.4611 8.64694ZM13.0703 21.5528C13.3776 21.7064 13.6849 21.7064 13.8385 21.3991C13.5313 21.5528 13.5313 21.2455 13.0703 21.5528ZM13.8385 21.3991C14.2995 21.3991 14.7604 22.0137 15.0677 21.2455C14.6068 21.2455 14.2995 21.2455 13.8385 21.3991ZM15.5286 4.95956C16.1432 6.34233 18.7551 4.65227 19.216 4.0377C18.1405 4.34498 16.9114 4.65228 15.5286 4.95956ZM22.2888 21.7064C22.4425 21.5528 22.4425 21.3991 22.5961 21.2455C20.5988 21.0919 20.7524 21.8601 22.2888 21.7064ZM21.6743 3.42315C21.8279 3.2695 21.6743 3.11585 21.367 3.2695C21.367 3.57678 21.367 3.57679 21.6743 3.42315ZM18.4478 16.9436C18.2941 16.6363 17.9869 16.7899 17.6796 17.2509C17.9869 17.4045 18.1405 17.2508 18.4478 16.9436ZM23.518 3.11584C23.518 3.57677 23.8252 3.57678 24.5934 3.2695C24.7471 2.80857 24.4398 2.80856 23.518 3.11584ZM26.7444 2.96219C26.7444 3.26948 27.0517 3.42313 27.359 3.11584C27.5126 3.11584 27.6663 3.11584 27.6663 2.96219C27.5126 2.96219 27.5126 3.11584 27.359 3.11584C27.359 3.11584 27.0517 3.11584 26.7444 2.96219ZM27.8199 3.11584C28.4345 3.42313 29.3563 3.73039 30.1245 3.57675C31.2 3.73039 32.1219 3.88407 33.0437 3.42315C31.3537 2.80858 29.51 2.50128 27.8199 3.11584ZM32.1219 4.95956C32.2755 5.42048 33.1974 5.1132 33.8119 4.95956C33.351 4.80592 32.5828 4.95956 32.1219 4.95956ZM34.5801 21.3991C35.1947 21.5528 35.1947 21.3992 35.6556 21.0919C35.3483 21.0919 34.8874 21.2455 34.5801 21.2455C34.5801 21.2455 34.5801 21.2455 34.5801 21.3991ZM36.7311 5.11316C36.4238 4.65224 35.8093 4.65227 35.041 4.80591C34.8874 5.57411 36.2702 5.42045 36.7311 5.11316ZM38.2675 22.6283V22.4747C37.9602 22.4747 37.6529 22.4747 37.3457 22.4747C37.0384 22.9356 37.3457 22.9356 38.2675 22.6283ZM37.3457 21.0919C37.4993 21.0919 37.8066 20.9382 37.9602 20.9382C37.6529 20.9382 37.3457 20.7846 37.3457 21.0919ZM37.9602 20.9382C38.1139 20.9382 38.1139 20.9382 37.9602 20.9382C38.1139 20.9382 38.2675 20.9383 38.2675 21.0919C38.4212 20.9383 38.4212 20.9382 37.9602 20.9382C37.9602 20.7846 38.1139 20.7846 37.9602 20.9382ZM39.4966 8.49329C39.8039 8.49329 39.9576 8.49328 39.9576 8.33964C39.8039 8.33964 39.6503 8.33965 39.4966 8.49329ZM40.5721 21.0919C41.0331 21.2455 41.3403 21.2455 41.3403 20.7846C41.1867 20.7846 40.8794 20.7846 40.7258 20.7846C40.7258 20.9382 40.5721 20.9383 40.5721 21.0919ZM36.1165 22.321C36.1165 22.0137 35.9629 22.0137 35.6556 22.1674C35.502 22.1674 35.502 22.1674 35.6556 22.1674C35.6556 22.4746 35.6556 22.4746 36.1165 22.321ZM33.8119 22.0137C33.8119 21.8601 33.6583 21.7065 33.5046 21.8601C33.351 22.0137 33.5046 22.0137 33.8119 22.0137ZM32.4291 20.9382C32.2755 20.9382 32.2755 20.9382 32.4291 20.9382C32.2755 21.2455 32.4291 21.2455 32.8901 21.0919C33.1974 21.0919 32.7364 21.0919 32.4291 20.9382ZM31.0464 11.2588C30.8927 11.5661 31.0464 11.7198 31.3537 11.5661C31.5073 11.2588 31.3537 11.2588 31.0464 11.2588ZM31.0464 21.2455C30.4318 21.3991 30.2782 21.5528 30.4318 21.8601C30.8927 21.5528 31.0464 21.7064 31.0464 21.2455ZM30.7391 22.6283C30.2782 22.4747 29.9709 22.4747 29.9709 22.6283C30.4318 22.7819 30.7391 22.7819 30.7391 22.6283ZM29.049 21.2455C29.049 21.0919 28.8954 20.9383 28.7418 21.0919C28.7418 21.2455 28.8954 21.2455 29.049 21.2455ZM27.8199 12.9489C27.6663 13.1025 27.6663 13.1025 27.5126 13.2562C28.1272 13.5635 28.1272 13.1025 27.8199 12.9489ZM43.7986 0.0430186C43.3377 -0.110623 42.1085 0.196669 41.6476 0.196669C41.3403 1.4258 44.5668 0.19666 43.7986 0.0430186ZM44.5668 20.9382C44.7204 20.7846 44.7204 20.7846 44.4132 20.6309C44.2595 20.9382 44.2595 20.9382 44.5668 20.9382ZM44.8741 6.18867C45.9496 5.88139 48.4078 5.72776 48.1006 4.80591C46.7178 5.11319 45.4887 5.26682 44.8741 6.18867ZM46.5641 1.57943C46.7178 1.27215 46.4105 1.11849 45.6423 1.27213C45.4887 1.57941 45.7959 1.57943 46.5641 1.57943ZM47.9469 2.80854C47.9469 3.26947 48.5615 3.42311 48.7151 2.80854C48.4078 2.80854 48.2542 2.80854 47.9469 2.80854ZM48.5615 20.7846C49.0224 20.9382 48.5615 21.0919 49.4833 20.9382C49.3297 20.7846 49.0224 20.631 48.5615 20.7846ZM50.2515 18.9409C50.4052 18.6336 50.2515 18.48 49.7906 18.48C49.7906 18.7873 49.9442 18.9409 50.2515 18.9409ZM50.7125 4.34496C50.8661 4.19131 50.7125 4.0377 50.4052 4.0377C50.4052 4.34498 50.4052 4.34496 50.7125 4.34496ZM50.5588 22.7819C51.1734 23.0892 51.7879 22.4746 51.9416 22.1674C51.4807 21.8601 50.8661 22.6283 50.5588 22.7819ZM51.327 6.34232C51.6343 6.34232 51.9416 6.18867 52.2489 6.18867C52.2489 5.72775 51.327 6.03504 51.327 6.34232ZM51.6343 1.57943C52.0952 1.57943 52.0952 1.57941 52.0952 1.27213C51.6343 1.27213 51.4807 1.42579 51.6343 1.57943ZM51.9416 3.11584C52.2489 3.26949 52.5562 3.11583 52.5562 2.80854C52.0952 2.80854 51.9416 2.9622 51.9416 3.11584ZM53.3244 1.42578C53.9389 1.8867 55.4753 1.4258 54.5535 2.50129C55.9363 2.19401 58.5482 1.88671 58.8554 0.811225C57.1654 0.657584 55.0144 1.27214 53.3244 1.42578ZM58.8554 2.65494C58.2409 2.80858 57.78 2.80855 57.319 2.96219C57.9336 3.26948 58.3945 3.2695 58.8554 2.65494ZM58.8554 4.49861C59.3164 4.49861 59.47 4.49863 59.47 4.19135C59.0091 4.03771 58.8554 4.19132 58.8554 4.49861ZM59.6236 22.321C60.6991 22.321 60.5455 22.4746 60.6991 22.0137C60.3919 22.0137 60.2382 22.0137 59.9309 22.0137C59.7773 22.0137 59.6236 22.1674 59.6236 22.321ZM61.9283 1.11853C62.0819 1.42581 62.3892 1.73309 62.5428 1.88673C62.8501 1.57945 62.8501 1.27217 61.9283 1.11853ZM63.0038 5.11316C62.6965 5.11316 62.5428 5.11316 62.2356 5.11316C62.2356 5.2668 62.2356 5.42046 62.2356 5.42046C63.1574 5.42046 63.0038 5.57409 63.0038 5.11316ZM63.4647 22.321C63.6183 22.1674 63.4647 22.0137 63.1574 22.1674C63.0038 22.4746 63.1574 22.4746 63.4647 22.321ZM63.311 0.657574C63.772 0.811216 64.0792 0.811206 64.0792 0.503924C63.9256 0.503924 63.6183 0.503961 63.4647 0.35032C63.4647 0.503961 63.4647 0.503933 63.311 0.657574ZM65.0011 21.2455C65.0011 21.0919 65.1547 20.7846 65.1547 20.6309C63.772 20.4773 63.9256 20.7846 65.0011 21.2455ZM64.3865 1.11853C64.8475 1.88673 65.6157 1.57945 66.3839 1.88673C68.9958 1.57945 70.8395 2.50129 71.6077 0.196669C69.4567 0.503952 66.9984 2.04037 64.3865 1.11853ZM71.7613 1.11853C71.6077 1.11853 71.454 1.11849 71.454 1.27213C71.454 1.11849 71.6077 1.11853 71.7613 1.11853C71.915 1.11853 72.0686 1.27214 72.3759 1.42578C72.3759 1.1185 72.2222 0.964885 71.7613 1.11853ZM72.2222 2.19399C74.6805 2.04035 76.3705 2.19402 78.3679 1.11853C76.9851 0.811244 75.756 0.964876 74.3732 0.964876C74.9878 0.657593 75.6023 0.503952 76.2169 0.196669C75.2951 0.043028 75.4487 0.043028 74.3732 0.196669C74.3732 0.350311 74.2196 0.964876 74.2196 0.964876C73.2977 0.964876 72.8368 1.73306 72.2222 2.19399ZM78.2142 20.6309C78.2142 21.0919 78.5215 21.0919 79.2897 20.7846C79.4434 20.3237 79.1361 20.17 78.2142 20.6309ZM76.9851 20.0164C76.6778 20.0164 76.5242 20.0164 76.5242 20.17C76.6778 20.0164 76.8315 20.0164 76.9851 20.0164ZM75.9096 4.34496C76.0633 4.19131 76.0633 4.0377 75.6023 4.0377C75.4487 4.19134 75.6023 4.34496 75.9096 4.34496ZM76.3706 20.6309C76.2169 20.6309 75.9096 20.6309 75.756 20.4773C75.756 20.6309 75.756 20.631 75.756 20.7846C75.6023 20.7846 75.4487 20.7846 75.756 20.7846C76.2169 20.7846 76.8315 20.6309 76.3706 20.6309ZM74.6805 20.6309C74.3732 20.6309 74.0659 20.631 73.7586 20.7846C74.2196 20.631 74.6805 20.9382 74.6805 20.6309ZM70.9931 20.7846C70.6858 20.631 70.3785 20.4773 70.0713 20.3237C67.9203 20.4773 69.3031 21.2455 70.9931 20.7846ZM68.0739 18.6336C67.9203 18.6336 67.7666 18.6336 67.613 18.6336C67.4594 18.7873 67.4594 18.9409 67.3057 19.0945C67.7666 19.0945 68.0739 18.9409 68.0739 18.6336ZM67.7666 20.6309C67.1521 20.4773 66.8448 20.4773 66.8448 20.9382C67.7666 20.9382 67.4594 20.9382 67.7666 20.6309ZM55.0144 12.1807C54.7071 12.027 54.7071 12.1807 54.5535 12.3343C54.8608 12.488 55.0144 12.488 55.0144 12.1807ZM54.2462 10.7979C53.9389 10.6443 53.6316 10.7979 53.3244 10.9516C53.9389 10.7979 53.6316 11.1052 54.2462 10.7979ZM57.0117 20.7846C55.3217 20.17 53.0171 20.3237 51.4807 21.0919C52.5561 21.0919 56.2435 21.3992 57.0117 20.7846ZM48.5615 20.7846C48.1006 20.7846 47.486 20.631 46.8714 20.9382C47.486 21.0919 48.1006 21.0919 48.5615 20.7846ZM42.7231 1.42578C42.4158 1.42578 41.9549 1.11851 41.9549 1.57943C42.2622 1.57943 42.4158 1.57942 42.7231 1.42578ZM80.5189 5.26681C80.6725 5.42045 80.8261 5.42045 80.9798 5.26681C80.8261 5.11317 80.6725 5.11317 80.5189 5.26681ZM80.6725 4.19135C80.9798 4.34499 81.1334 4.34499 81.4407 4.19135C81.1334 4.03771 81.5944 3.88407 80.6725 4.19135ZM81.748 1.27213C83.1308 1.57941 83.2844 1.57945 83.7453 0.35032C83.1308 0.657603 82.5162 0.964848 81.748 1.27213ZM84.3599 20.4773C84.6672 20.6309 84.6672 20.4773 84.6672 20.3237V20.17C84.6672 20.17 84.6672 20.17 84.6672 20.3237C84.5135 20.4773 84.5135 20.4773 84.3599 20.4773ZM84.5135 20.3237C84.5135 20.17 84.5135 20.17 84.5135 20.3237C84.6672 20.17 84.8208 20.17 84.9745 20.0164C84.8208 19.8627 84.6672 19.8628 84.5135 20.3237C84.3599 20.17 84.5135 20.17 84.5135 20.3237ZM85.2817 3.7304C85.589 3.88404 85.7427 3.88404 86.0499 3.7304C86.0499 3.88404 84.9745 3.7304 85.2817 3.7304ZM85.7427 2.04034C86.5109 2.50126 87.4327 2.65491 88.3546 2.19399C88.3546 1.73306 86.3572 2.04034 85.7427 2.04034ZM89.2764 3.42315C88.0473 2.96222 86.9718 3.26949 85.8963 3.88405C86.9718 3.88405 88.5082 4.03771 89.2764 3.42315ZM89.7373 20.4773C89.7373 20.7846 89.891 20.7846 90.5055 20.4773C90.3519 20.4773 90.1983 20.3237 89.7373 20.4773ZM90.6592 2.80854C91.4274 3.57675 93.732 2.96218 94.9611 2.80854C94.0393 1.57941 92.1956 2.50126 90.6592 2.80854ZM92.8102 20.4773C94.5002 20.9382 96.4976 20.9382 98.1876 20.4773C96.4976 20.17 94.6539 20.4773 92.8102 20.4773ZM100.339 4.49861C100.646 4.49861 100.646 4.4986 100.646 4.34496C100.185 4.19131 100.185 4.19132 100.339 4.49861ZM102.182 20.4773L102.336 20.3237C102.49 20.3237 102.49 20.3237 102.643 20.3237C102.643 20.17 102.49 20.17 102.336 20.3237C102.336 20.4773 102.182 20.4773 102.182 20.4773ZM103.104 2.80854C103.565 2.34762 102.95 2.34763 102.643 2.19399C102.49 2.04035 102.643 3.26947 103.104 2.80854ZM92.6565 15.8681C92.3492 15.8681 92.1956 15.8681 92.1956 16.0217C92.5029 16.1753 92.6565 16.0217 92.6565 15.8681ZM86.2036 20.4773C85.8963 20.6309 86.05 20.631 86.3572 20.7846C86.5109 20.631 86.5109 20.4773 86.2036 20.4773ZM82.3626 22.4747C81.748 22.321 81.2871 22.4747 80.8261 22.6283C81.9016 22.9356 81.748 22.9356 82.3626 22.4747ZM103.719 2.34764C103.872 2.34764 103.872 2.34764 104.026 2.34764C104.333 2.04036 104.18 1.88673 103.719 1.88673C103.872 2.04037 103.719 2.194 103.719 2.34764ZM104.026 20.0164C103.872 20.17 104.026 20.3237 104.333 20.17C104.333 20.0164 104.333 20.0164 104.026 20.0164ZM108.635 4.49861C108.789 4.34497 108.789 4.34497 108.635 4.49861C108.789 4.34497 108.943 4.49861 109.096 4.49861C109.096 4.19132 108.942 4.19132 108.635 4.49861C108.635 4.34497 108.789 4.34497 108.635 4.49861ZM113.552 16.6363C113.705 16.7899 113.859 16.7899 113.859 16.6363C113.552 16.329 113.552 16.329 113.552 16.6363ZM113.705 2.65494C114.013 2.80858 114.013 3.11583 114.32 2.80854C114.166 2.6549 114.013 2.65494 113.705 2.65494ZM115.856 22.7819C116.164 22.9356 116.317 22.9356 116.317 22.6283C115.856 22.4747 115.703 22.4746 115.856 22.7819ZM118.929 20.4773C119.083 20.3237 119.083 20.3237 118.929 20.17C118.776 20.17 118.622 20.17 118.468 20.17C118.468 20.4773 118.622 20.6309 118.929 20.4773ZM122.309 22.9356C122.463 22.7819 122.309 22.6283 122.002 22.6283C122.002 22.7819 122.002 22.9356 122.309 22.9356ZM122.463 4.34496C122.617 4.4986 122.77 4.4986 122.924 4.34496C122.617 4.19131 122.463 4.19131 122.463 4.34496ZM123.077 16.1754C122.617 16.0217 122.617 16.0217 122.617 16.329C123.078 16.4826 123.077 16.329 123.077 16.1754ZM123.538 17.4045C125.228 18.1727 125.997 17.0972 126.304 16.0217C125.997 16.329 125.689 16.4826 125.536 16.7899C124.614 16.7899 123.999 16.9435 123.538 17.4045ZM126.304 15.4071C126.458 15.4071 126.765 15.4071 126.919 15.2535C126.765 15.2535 126.611 14.7926 126.304 15.4071ZM127.226 22.7819C129.07 22.9356 131.528 23.3965 132.911 22.4747C131.528 22.4747 128.455 22.0137 127.226 22.7819ZM128.609 16.1754C128.455 16.1754 128.301 16.0217 128.148 16.0217C127.687 16.329 128.301 16.329 128.609 16.1754ZM129.223 15.5608C129.377 16.0217 129.838 16.1753 130.452 16.0217C130.145 16.0217 129.53 15.7144 129.223 15.5608ZM129.684 3.11584C129.991 3.26949 130.145 3.26949 130.145 3.11584C129.991 3.11584 129.838 3.11584 129.684 3.11584ZM130.452 16.1754C130.452 16.0217 130.452 16.0217 130.452 16.1754C130.606 16.0217 130.76 16.1754 130.913 16.1754C130.913 15.8681 130.76 15.8681 130.452 16.1754C130.452 16.0217 130.452 16.0217 130.452 16.1754ZM131.989 13.8707C132.142 14.4853 133.525 14.0244 133.986 13.7171C133.064 13.4098 132.757 13.7171 131.989 13.8707ZM132.296 2.34764C132.45 2.04036 132.45 1.88673 132.142 1.88673C131.989 2.04037 132.142 2.34764 132.296 2.34764ZM134.447 12.7952C135.062 12.4879 134.447 12.027 133.986 11.7198C133.679 12.3343 133.679 12.1807 134.447 12.7952ZM136.905 22.6283C137.212 22.7819 138.288 23.0892 138.442 22.6283C137.981 22.4747 137.52 22.4747 136.905 22.6283ZM137.059 12.1807C137.52 12.488 137.827 12.027 137.52 11.7198C137.366 11.8734 137.212 12.027 137.059 12.1807ZM138.442 11.2588C138.442 11.1052 138.442 10.9516 138.134 11.1052C138.134 11.2589 138.134 11.4125 138.442 11.2588ZM141.361 2.50129C141.514 2.65493 141.822 2.65494 142.129 2.65494C141.822 2.5013 141.822 2.50129 141.361 2.50129ZM133.218 18.48C132.296 18.3263 132.603 18.3264 132.296 18.7873C132.757 18.9409 133.064 18.7873 133.218 18.48ZM125.997 22.321C125.075 22.1674 124.46 22.4746 123.538 22.7819C124.614 22.7819 125.536 23.0892 125.997 22.321ZM145.048 2.50129C146.124 2.96221 146.277 2.96218 146.431 2.04034C145.97 2.19398 145.509 2.34765 145.048 2.50129ZM149.197 23.0892C149.811 23.0892 149.965 22.9356 149.965 22.6283C149.504 22.6283 149.197 22.7819 149.197 23.0892ZM152.116 1.42578C152.116 1.27214 152.116 1.27217 152.116 1.11853C151.808 1.11853 151.347 1.11853 151.04 1.11853C150.733 1.57945 151.04 1.73306 152.116 1.42578ZM160.259 18.3263C160.412 18.6336 161.027 18.3264 160.873 18.0191C160.72 18.1727 160.566 18.3263 160.259 18.3263ZM160.873 2.65494C162.717 3.11586 162.717 3.11584 163.332 2.34764C162.563 2.34764 161.795 2.5013 160.873 2.65494ZM160.873 4.0377C161.181 4.0377 161.488 4.03771 161.795 4.19135C161.795 3.73043 161.181 3.88406 160.873 4.0377ZM169.938 4.19135C170.399 4.03771 170.86 4.03769 171.475 3.88405C170.706 3.88405 170.553 3.57679 169.938 4.19135ZM170.86 2.96219C171.014 2.96219 171.014 2.80858 171.014 2.65494C170.86 2.65494 170.706 2.50129 170.553 2.50129C170.399 2.80857 170.399 2.96219 170.86 2.96219ZM173.011 2.80854C173.165 2.96218 173.472 2.96219 173.779 2.96219C173.472 2.96219 173.318 2.50126 173.011 2.80854ZM173.779 2.96219C174.855 3.26948 175.93 3.11586 176.698 2.65494C175.776 2.80858 174.547 2.50127 173.779 2.96219ZM177.159 22.7819C176.852 22.7819 176.391 22.6283 176.084 22.6283C176.084 23.2429 176.698 23.3965 177.159 22.7819ZM175.162 4.0377C174.855 3.88406 174.701 3.88406 174.701 4.0377C174.855 4.0377 175.008 4.0377 175.162 4.0377ZM173.933 4.0377C173.779 4.0377 173.625 4.03769 173.472 3.88405C173.472 4.03769 173.779 4.0377 173.933 4.0377ZM174.701 4.0377C174.24 3.88406 173.933 3.88406 173.933 4.0377C174.394 4.19134 174.547 4.19134 174.701 4.0377ZM178.235 4.19135C178.696 4.34499 178.696 4.80592 179.157 4.19135C178.849 3.88407 178.542 4.03771 178.235 4.19135ZM189.911 6.64958C190.219 6.34229 190.219 6.34232 189.604 6.34232C189.451 6.49596 189.604 6.64958 189.911 6.64958ZM189.911 3.11584C191.294 3.26949 192.523 3.57678 194.213 3.2695C192.677 2.34765 191.294 2.65492 189.911 3.11584ZM193.445 4.95956C193.599 5.26684 193.906 5.11319 194.213 4.80591C194.06 4.49863 193.906 4.49863 193.445 4.95956ZM198.976 1.42578C197.901 2.04035 196.672 2.65492 195.443 3.11584C196.364 3.26949 199.898 2.50127 198.976 1.42578C199.13 1.27214 199.437 1.27217 199.591 1.11853C199.13 1.27217 198.515 0.964857 198.976 1.42578ZM209.578 22.7819C210.96 23.0892 211.882 23.0892 212.804 22.6283C211.882 22.4747 210.807 22.321 209.578 22.7819ZM0.0108336 1.42578C2.77638 -0.110632 5.8492 0.35032 8.76839 0.35032C9.38295 0.35032 9.99752 0.0430186 10.6121 0.0430186H10.7657H10.9194C11.5339 0.0430186 12.1485 0.0430186 12.9167 0.0430186C13.3776 0.0430186 13.6849 0.35032 14.1458 0.35032C15.6822 0.196679 17.3723 0.964848 18.9087 0.503924C19.8306 0.196641 21.0597 0.196669 22.2888 0.196669C24.2862 0.196669 26.1299 0.196669 28.1272 0.196669C27.6663 0.350311 27.2053 0.657574 27.2053 0.657574C27.5126 0.964857 28.2808 0.503952 28.8954 0.196669H31.6609C31.0464 0.350311 30.5854 0.503933 30.1245 0.657574C31.3537 0.964857 31.5073 0.964876 31.9682 0.196669C41.1867 0.196669 50.4052 0.196669 59.6236 0.196669C59.6236 0.350311 59.7773 0.657584 59.9309 0.811225C60.3919 0.657584 60.6991 0.350311 61.1601 0.196669C63.6183 0.196669 66.2302 0.196669 68.6885 0.196669C76.2169 0.196669 83.5917 0.196669 91.1201 0.196669C91.2738 0.196669 91.2738 0.196669 91.4274 0.196669C92.9638 0.196669 94.3466 0.503924 95.883 0.503924C98.4949 0.503924 101.107 0.503924 103.719 0.503924C108.482 0.503924 113.091 0.503924 117.854 0.503924C121.234 0.503924 124.614 0.503924 128.148 0.503924C131.681 0.657565 135.215 0.196679 138.749 0.35032C140.593 0.503961 142.436 0.503924 144.28 0.503924C145.816 0.503924 147.199 0.657574 148.736 0.657574C149.965 0.657574 151.04 0.657574 152.269 0.657574C152.577 0.657574 153.038 0.811225 153.345 0.811225C153.959 0.811225 154.728 1.11853 154.881 0.35032C154.881 0.35032 155.649 0.196679 155.957 0.35032C157.186 0.811244 158.261 0.964848 159.49 0.503924C159.644 0.503924 159.951 0.657574 160.259 0.657574C160.72 0.657574 161.181 0.657574 161.641 0.657574C161.641 0.657574 161.641 0.503924 161.795 0.503924C162.563 0.811206 163.178 1.27214 164.1 0.657574C164.253 0.657574 164.407 0.657574 164.714 0.657574C165.482 0.657574 166.251 0.657574 167.173 0.657574C167.48 0.657574 167.787 0.811234 168.094 0.964876L168.248 0.811225C168.863 0.811225 169.324 0.811225 169.784 0.811225C170.86 0.811225 172.089 0.964857 173.165 0.657574C174.855 0.350292 176.545 1.27214 178.235 0.657574C179.157 0.503933 180.232 0.811225 181.308 0.811225C183.151 0.811225 184.841 0.964848 186.685 0.503924C187.3 0.350282 187.914 0.657565 188.529 0.503924C189.143 0.350282 189.604 0.503933 190.065 0.657574C190.987 0.657574 191.755 0.503924 192.677 0.503924C193.292 0.503924 194.06 0.657584 194.674 0.811225V0.35032C196.672 0.503961 198.515 0.657584 200.359 0.811225C200.974 0.811225 201.588 0.657584 201.895 0.811225C202.049 0.964866 202.356 0.964885 202.51 1.11853C201.588 1.42581 200.974 1.73306 200.513 2.19399C201.435 2.04035 202.203 1.73309 202.971 1.11853C203.278 1.11853 203.739 0.964848 204.046 0.503924C204.2 1.57941 204.968 1.27217 205.737 1.11853C206.044 1.11853 206.505 0.964876 206.505 0.964876C207.119 1.73308 207.734 1.11852 208.502 0.964876C210.038 0.811234 211.575 0.503933 213.265 0.657574C212.036 1.27214 210.192 1.57942 208.502 1.42578C208.809 1.42578 208.502 1.57944 207.734 1.73308C207.58 2.19401 210.499 2.34764 210.96 2.34764C212.65 2.50128 213.265 2.04036 214.648 1.73308C215.416 1.57944 218.489 1.57944 219.872 0.964876C220.793 0.964876 221.869 1.11849 222.791 1.27213C223.098 1.27213 223.559 1.27217 223.866 1.11853C224.327 1.11853 224.788 1.11853 225.403 1.11853C226.171 1.11853 227.093 1.11853 227.861 1.11853C228.475 1.11853 228.629 1.27215 228.629 1.57943C228.475 4.19133 228.322 7.41779 228.322 9.87605C228.322 11.8734 228.936 13.8707 228.936 15.8681C229.09 18.019 228.936 20.17 228.783 22.321C228.783 22.4746 228.629 22.7819 228.475 23.0892C228.168 22.7819 228.014 22.6283 227.707 22.4747C226.478 23.2429 225.71 23.2429 225.095 22.4747C224.788 22.6283 224.327 22.7819 224.02 22.9356C224.634 23.0892 225.095 23.2429 225.556 23.2429C225.556 23.3965 225.556 23.3965 225.556 23.3965C223.405 22.9356 221.101 24.1647 218.95 23.2429C218.028 23.3965 217.106 23.5502 216.184 23.3965C213.879 23.3965 211.575 23.2429 209.27 23.0892C208.809 23.0892 208.502 22.7819 208.041 22.4747C208.041 22.6283 208.041 22.7819 208.041 22.9356C207.887 22.9356 207.887 23.0892 207.734 23.0892C207.58 22.9356 207.273 22.7819 207.273 22.6283C207.273 22.4747 207.273 22.321 207.427 22.0137C206.505 22.1673 205.89 22.321 204.968 22.4747C204.968 22.4747 204.968 22.321 204.815 22.1674C204.661 22.1674 204.354 22.321 204.2 22.321C202.971 21.3992 201.435 22.1673 200.052 22.0137C199.13 22.0137 198.208 22.0137 197.286 22.0137C196.979 22.0137 196.672 22.1674 196.672 22.321C196.672 22.9356 195.903 22.7819 195.443 22.7819C194.213 22.6283 192.984 22.1673 191.755 22.7819C191.602 22.9356 191.294 22.7819 190.987 22.7819C149.043 22.7819 107.099 22.7819 65.1547 22.7819C64.6938 22.7819 64.3865 22.7819 63.9256 22.7819C63.9256 22.6283 63.9256 22.4746 63.772 22.1674C63.1574 22.321 62.6965 22.4747 62.0819 22.6283C60.5455 22.6283 58.8554 22.4747 57.319 22.4747C57.1654 22.4747 56.8581 22.4747 56.7045 22.4747C55.7826 22.321 54.8608 22.1674 54.5535 21.8601C54.3998 22.1674 54.0926 22.321 53.7853 22.4747C52.5561 22.4747 51.1734 22.4747 49.9442 22.4747C47.0251 22.4747 44.1059 22.321 41.1867 22.4747C38.4212 22.4747 35.6556 22.7819 32.8901 22.9356C31.5073 22.9356 30.1245 22.7819 28.8954 22.7819C26.7444 22.6283 24.5934 22.6283 22.2888 22.4747C19.9842 22.4747 17.5259 22.4747 15.2213 22.4747C13.5313 22.4747 11.9949 22.6283 10.3048 22.6283C8.15382 22.6283 4.00551 22.4746 1.70089 22.321V20.6309C1.23996 21.0919 0.932681 21.5528 0.471757 22.0137C0.318116 22.0137 0.318116 22.0137 0.164475 21.8601C0.625399 21.3992 0.625399 20.9382 0.318116 20.17C0.77904 20.17 1.23996 20.0164 1.70089 20.0164C1.70089 19.4018 1.85453 18.7872 1.85453 18.3263C1.85453 18.1727 1.39361 17.8654 1.23996 17.8654C0.625399 18.0191 0.318116 17.8654 0.0108336 17.4045C-0.142808 17.2508 1.39361 17.2509 1.08632 17.0972C0.77904 16.9436 0.471757 16.7899 0.318116 16.6363C1.39361 16.6363 0.318116 16.6363 1.23996 16.6363V15.2535C0.164475 15.5608 1.23996 15.7144 0.318116 16.0217C0.471757 11.8734 0.164475 6.18866 0.0108336 1.42578ZM35.502 22.1674C35.6556 22.1674 35.6556 22.1674 35.502 22.1674C35.6556 22.1674 35.6556 22.1674 35.8093 22.1674C35.8093 22.1674 35.6556 22.1674 35.502 22.1674Z" fill="white"/>
</svg>
