<svg width="48" height="48" viewBox="0 0 48 48" fill="none" xmlns="http://www.w3.org/2000/svg">
<path d="M22.0975 6.70308H10.0975C6.12101 6.70308 2.89746 9.92663 2.89746 13.9031V37.9033C2.89746 41.8798 6.12101 45.1033 10.0975 45.1033H34.0975C38.0739 45.1033 41.2975 41.8798 41.2975 37.9033L41.2975 25.9032M14.8975 33.1031L23.6294 31.3436C24.093 31.2502 24.5186 31.022 24.8529 30.6875L44.4002 11.1294C45.3374 10.1917 45.3368 8.67176 44.3988 7.73484L40.258 3.59868C39.3204 2.66215 37.8012 2.66279 36.8644 3.60011L17.315 23.1602C16.9814 23.494 16.7536 23.9188 16.6601 24.3814L14.8975 33.1031Z" stroke="white" stroke-width="2" stroke-linecap="round" stroke-linejoin="round"/>
</svg>
