<svg width="48" height="48" viewBox="0 0 48 48" fill="none" xmlns="http://www.w3.org/2000/svg">
<path d="M13.2 40.8V30C13.2 28.6745 14.2746 27.6 15.6 27.6H32.4C33.7255 27.6 34.8 28.6745 34.8 30V42M34.8 7.19999V12C34.8 13.3255 33.7255 14.4 32.4 14.4L15.6 14.4C14.2746 14.4 13.2 13.3255 13.2 12L13.2 4.79999M41.995 13.1949L34.8051 6.00504C34.0335 5.23347 32.9871 4.79999 31.8959 4.79999H8.91433C6.64205 4.79999 4.80005 6.64199 4.80005 8.91427V39.0857C4.80005 41.358 6.64205 43.2 8.91433 43.2H39.0858C41.358 43.2 43.2 41.358 43.2 39.0857V16.1042C43.2 15.013 42.7666 13.9665 41.995 13.1949Z" stroke="white" stroke-width="2" stroke-linecap="round"/>
</svg>
