<svg width="77" height="79" viewBox="0 0 77 79" fill="none" xmlns="http://www.w3.org/2000/svg">
<path d="M38.2576 77.8706C53.6209 76.2138 65.9718 62.0556 67.1767 59.6456C71.2435 50.9097 75.3102 8.88661 75.3102 8.88661L38.2576 1.65686L1.20508 8.88661C1.20508 8.88661 5.27182 50.9097 9.33857 59.6456C10.5435 61.9049 22.8944 76.2138 38.2576 77.8706Z" fill="black"/>
<path d="M63.5617 66.4235C65.2185 64.9173 66.4235 63.5617 67.4778 62.3568C67.7791 62.0555 67.9297 61.7543 68.2309 61.3024C68.5322 61.0012 68.8334 60.3987 68.984 60.0974C69.2853 59.3443 69.5865 58.7419 69.8878 57.9888C70.7915 55.2776 71.5446 52.5664 72.2977 48.0478C73.0508 43.8305 73.6533 39.3119 74.2558 35.2451C74.2558 33.2871 75.0089 29.8228 75.0089 27.5635L75.3101 26.6597C75.3101 25.9066 75.3101 24.8523 75.6113 24.0992C75.6113 22.8943 75.9126 21.5387 75.9126 20.9362L76.0632 19.43V19.7313C76.2138 17.6226 76.3644 15.5139 76.6657 13.5558L76.3644 13.7064C76.5151 12.6521 76.6657 11.899 76.6657 11.1459C76.8163 9.94092 76.8163 8.88656 76.9669 7.83222C76.9669 7.6816 76.9669 7.531 76.9669 7.38038H76.5151L75.6113 7.22975C75.0089 7.07913 74.4064 7.07916 73.9545 6.92854C73.2014 6.77792 72.4483 6.62726 71.5446 6.32602C66.8754 6.02478 64.4654 4.51859 59.6456 4.21735C60.2481 4.21735 59.3444 4.06672 59.495 4.06672C57.3863 3.76548 54.9764 3.31364 54.9764 3.7655C53.4702 3.46426 53.7714 3.31365 53.6208 3.16303C53.6208 3.31365 52.2652 3.16301 51.0602 2.86177H51.6627L48.1985 2.2593L48.8009 2.71115C46.9935 2.25928 48.3491 2.25928 46.5416 1.95804V2.2593C43.9811 1.65682 42.6255 0.903694 40.065 0.301213C39.4625 0.150593 39.0106 0.15062 38.4081 0C37.0526 0.30124 35.697 0.602481 34.3414 0.753101C33.1364 1.05434 31.7809 1.35558 30.5759 1.5062C28.0154 2.10868 25.4548 2.56055 23.0449 3.16303C18.0744 4.21737 13.104 5.2717 8.43473 5.87418L7.98287 5.72355C7.68163 5.42231 5.42233 6.77789 4.97047 6.47665L3.91613 6.77791C3.61489 6.77791 2.86178 6.7779 3.46426 6.62728C3.0124 6.62728 2.40992 6.77792 2.10868 6.92854C1.80744 7.07916 1.5062 7.07913 0.903722 7.22975C0.602481 7.22975 0.15062 7.22976 0 7.38038V8.28411C0.15062 9.18783 0.15062 9.94091 0.15062 10.8446C0.15062 11.2965 0.30124 11.899 0.30124 12.3508C0.45186 13.2545 0.602481 14.3089 0.753101 15.2126C1.05434 17.1707 1.35558 19.1288 1.5062 21.2375C1.65682 26.5092 3.31364 36.2994 4.51861 41.8724C5.42233 45.7885 5.87419 50.1565 6.77791 54.5245C7.38039 56.6332 7.53101 58.8925 9.03721 61.1518C10.3928 63.1099 11.899 64.616 13.5558 65.9716C13.7064 66.1222 14.3089 66.5741 14.3089 66.5741C16.1164 68.3815 18.225 69.8878 20.3337 71.394C20.3337 71.394 22.2918 72.7496 25.003 74.2558C27.7141 75.762 31.329 77.1176 34.1908 77.72C35.5464 78.0213 36.9019 78.1719 37.655 78.1719C38.4081 78.1719 38.86 78.0212 38.5588 77.8706C38.1069 77.2681 35.0945 76.9669 29.2203 73.6533H29.3709C25.7561 71.8458 23.798 70.4902 21.2374 69.1347C21.0868 68.5322 18.6769 67.1766 18.0744 66.4235H18.225C16.1164 65.0679 14.6102 62.8086 12.9533 61.3024C13.104 61.3024 13.104 61.3024 13.5558 61.7543C12.9533 61.1518 12.3509 60.3987 11.7484 59.7962C11.2965 59.1937 11.1459 58.7419 11.1459 58.7419C10.3928 57.0851 9.79031 54.6751 9.18783 52.4158C8.58535 50.1565 8.13349 48.0479 7.68163 46.8429L7.83225 46.9935C7.22977 45.4873 7.38039 45.0354 7.07915 43.3786C7.07915 43.228 7.07915 43.228 7.07915 43.228C6.47667 41.5711 6.32605 38.4082 6.02481 37.0526L6.17543 36.9019L5.72357 33.5883L5.87419 34.7933C5.42233 34.492 5.87419 32.2327 5.27171 29.9734C4.97047 27.7141 3.7655 25.6054 3.61488 23.1955C3.31364 22.1412 4.06675 24.0992 3.7655 22.4424C4.06675 22.2918 4.06675 23.1955 4.21737 22.7437C3.91613 21.0868 4.21737 20.0325 3.7655 18.0744L3.91613 17.9238C3.31364 15.3633 3.61489 12.9533 3.16302 11.2965C3.16302 10.9953 3.0124 10.694 3.0124 10.3928C3.0124 10.2422 3.0124 10.0915 3.0124 10.0915C3.0124 9.94091 3.16302 9.79031 3.16302 9.79031C3.16302 9.63969 3.46426 9.79029 3.91613 9.48905H4.97047C6.17543 9.33843 5.72357 9.0372 7.07915 8.88658C7.07915 9.0372 8.73597 8.73597 7.98287 9.03721C10.9953 8.73597 14.0077 7.53098 18.0744 7.07912C18.8275 6.62726 20.9362 6.47667 21.5387 6.02481C21.6893 6.17543 25.4548 5.27171 23.3461 6.02481C23.1955 6.02481 22.8943 6.17543 22.8943 6.02481L22.593 6.32602C24.8523 6.1754 26.6598 5.27169 28.9191 4.97045C28.3166 4.97045 27.4129 5.27169 27.8647 4.97045L29.9734 4.51861L29.5216 4.81982L32.6846 4.36798L32.2327 4.21735C33.7389 4.06673 34.3414 4.21736 35.9982 3.61488C36.7513 3.31364 34.492 3.61486 36.1488 3.31362C36.6007 3.31362 37.0526 3.16303 37.655 3.16303C37.9563 3.16303 38.2575 3.16302 38.4081 3.0124H38.86C39.0106 3.0124 39.0106 3.0124 39.0106 3.0124C39.0106 3.0124 39.4625 3.16303 39.7637 3.16303L40.9687 3.46425C41.7218 3.61487 42.4749 3.76551 43.228 3.91613C43.0774 3.61489 43.6799 3.76551 44.433 3.91613V4.06672C47.1441 4.36796 45.3367 4.66921 48.0478 4.97045L47.7466 5.12108L48.4997 4.81982C51.0602 4.97044 49.7047 5.42234 52.5664 5.42234C51.5121 5.27172 52.1146 4.97047 53.4702 5.27171L53.1689 5.42234C53.922 5.57296 54.2233 5.57292 54.6751 5.57292C54.2233 5.57292 54.3739 5.72357 55.4282 6.02481L54.6751 6.17544H56.7838C58.29 6.6273 60.8506 6.92851 61.453 7.22975C61.453 7.22975 64.7667 7.98284 65.6704 7.83222C64.9173 7.83222 66.8754 8.28412 66.2729 8.43474C67.1766 8.43474 69.7371 8.73598 70.7915 9.18784H70.6409C71.5446 9.48908 72.4483 9.63969 73.352 9.79031L73.9545 9.94094H74.1051H74.2558V10.0915V10.2422V10.8446C74.1051 11.5977 74.1051 12.5015 73.9545 13.2546C74.2557 13.1039 73.8039 14.9114 74.2558 14.4595C74.1051 18.0744 72.9002 20.9362 73.6533 22.2918C73.5027 23.9486 73.2014 24.2499 73.0508 25.003V24.5511C72.7495 27.5635 72.5989 28.4672 72.2977 30.7265C72.2977 31.9315 72.5989 32.0821 72.2977 34.1908C72.2977 33.4377 72.1471 34.3414 71.9964 35.0945C71.9964 34.6426 71.9964 34.492 71.6952 35.3957C71.6952 35.5464 71.6952 35.697 71.6952 35.9982C71.5446 37.2032 71.6952 37.0525 71.6952 36.4501C71.6952 36.4501 71.6952 36.4501 71.8458 36.2995C71.394 37.6551 71.394 39.9144 71.0927 40.065C70.4902 43.8305 70.3396 46.5416 69.8878 49.7047C69.7371 50.0059 69.7371 49.2528 69.8878 48.3491L69.4359 50.6084C69.2853 50.6084 69.5865 49.2528 69.7371 48.6503C68.984 51.2108 68.984 54.2233 67.7791 56.9344V57.5369L67.6285 57.6875C67.7791 57.6875 67.6285 58.4406 67.4778 58.7419C67.1766 59.0431 67.1766 58.4406 66.4235 59.6456C65.5198 60.5493 64.3148 62.3568 63.2605 63.4111C63.863 62.8086 63.7123 63.1099 63.5617 63.4111C62.9592 64.0136 62.5074 64.1642 62.2061 64.6161L62.0555 64.4654C62.5074 64.4654 60.6999 65.9716 60.5493 66.2729C60.0975 66.4235 61.3024 65.3691 61.453 65.0679C60.2481 66.1222 59.9468 66.2729 59.6456 66.5741C59.3444 66.8753 59.0431 67.026 57.8382 68.0803C56.6332 69.2853 58.29 68.0803 57.6875 68.6828C57.085 69.1347 56.4826 69.5865 55.8801 70.0384C55.2776 70.4903 54.6751 70.9421 53.922 71.2433L54.5245 71.0927C53.3195 71.8458 52.4158 72.4483 51.5121 72.9002C50.6084 73.352 49.8553 73.6533 48.9516 73.9545C44.433 76.3644 41.2699 76.9669 39.9143 77.5694C39.3065 77.772 35.4125 77.4409 35.3957 77.5694C35.3751 77.7274 39.3483 78.3225 39.7637 78.3225C40.5168 78.3225 42.023 78.3225 43.3786 78.1719C44.5836 77.8706 45.6379 77.72 45.6379 77.72C49.8553 76.6657 52.7171 75.1595 55.5789 73.2014C57.0851 72.1471 59.9468 69.8878 63.5617 66.4235Z" fill="white"/>
</svg>
