<svg width="48" height="48" viewBox="0 0 48 48" fill="none" xmlns="http://www.w3.org/2000/svg">
<path d="M4.80005 10.8H43.2M19.2 34.8V20.4M28.8 34.8V20.4M33.6 44.4H14.4C11.7491 44.4 9.60005 42.2509 9.60005 39.6V13.2C9.60005 11.8745 10.6746 10.8 12 10.8H36C37.3255 10.8 38.4 11.8745 38.4 13.2V39.6C38.4 42.2509 36.251 44.4 33.6 44.4ZM19.2 10.8H28.8C30.1255 10.8 31.2 9.72546 31.2 8.39998V5.99998C31.2 4.67449 30.1255 3.59998 28.8 3.59998H19.2C17.8746 3.59998 16.8 4.67449 16.8 5.99998V8.39998C16.8 9.72546 17.8746 10.8 19.2 10.8Z" stroke="white" stroke-width="2" stroke-linecap="round" stroke-linejoin="round"/>
</svg>
